<svg width="100" height="19" viewBox="0 0 100 19" fill="none" xmlns="http://www.w3.org/2000/svg">
<path d="M0.57 14V-9.53674e-07H5.36C6.65333 -9.53674e-07 7.64333 0.286666 8.33 0.86C9.02333 1.42667 9.37 2.27333 9.37 3.4C9.37 4.2 9.19333 4.88667 8.84 5.46C8.48667 6.03333 7.95667 6.42667 7.25 6.64L7.42 6.25C8.45333 6.44333 9.24 6.85333 9.78 7.48C10.32 8.10667 10.59 8.95 10.59 10.01C10.59 11.25 10.19 12.2267 9.39 12.94C8.59 13.6467 7.49 14 6.09 14H0.57ZM2.75 12.04H5.84C6.58 12.04 7.17 11.87 7.61 11.53C8.05667 11.1833 8.28 10.6267 8.28 9.86C8.28 9.02667 8.05 8.45 7.59 8.13C7.13667 7.80333 6.55333 7.64 5.84 7.64H2.75V12.04ZM2.75 5.68H5.06C5.71333 5.68 6.22667 5.55 6.6 5.29C6.98 5.02333 7.17 4.53333 7.17 3.82C7.17 3.1 6.98 2.61 6.6 2.35C6.22667 2.08333 5.71333 1.95 5.06 1.95H2.75V5.68ZM12.2603 14V4.12H14.1003L14.2503 5.5C14.6503 5.02 15.077 4.63667 15.5303 4.35C15.9903 4.06333 16.487 3.92 17.0203 3.92C17.1803 3.92 17.3303 3.93667 17.4703 3.97L17.2903 6.14C17.177 6.11333 17.0603 6.09333 16.9403 6.08C16.827 6.06667 16.707 6.06 16.5803 6.06C16.1003 6.06 15.6603 6.17 15.2603 6.39C14.867 6.60333 14.587 6.84667 14.4203 7.12V14H12.2603ZM20.7989 14.2C20.2256 14.2 19.7156 14.08 19.2689 13.84C18.8222 13.5933 18.4689 13.2533 18.2089 12.82C17.9556 12.3867 17.8289 11.8767 17.8289 11.29C17.8289 10.73 17.9556 10.2533 18.2089 9.86C18.4622 9.46 18.7989 9.12667 19.2189 8.86C19.6389 8.59333 20.0989 8.38333 20.5989 8.23C21.1056 8.07 21.6189 7.95333 22.1389 7.88C22.6589 7.80667 23.1422 7.76667 23.5889 7.76C23.5822 6.98 23.4156 6.45333 23.0889 6.18C22.7622 5.9 22.2656 5.76 21.5989 5.76C21.1989 5.76 20.7889 5.82 20.3689 5.94C19.9489 6.05333 19.4756 6.27 18.9489 6.59L18.7089 4.89C19.1889 4.59667 19.7256 4.36333 20.3189 4.19C20.9122 4.01667 21.5256 3.93 22.1589 3.93C22.9522 3.93 23.6089 4.07 24.1289 4.35C24.6489 4.63 25.0389 5.09333 25.2989 5.74C25.5589 6.38667 25.6889 7.25333 25.6889 8.34V10.64C25.6889 11.12 25.7089 11.4967 25.7489 11.77C25.7956 12.0367 25.8922 12.2267 26.0389 12.34C26.1856 12.4533 26.4089 12.51 26.7089 12.51H26.9489L26.6889 14.2H26.2289C25.7356 14.2 25.3356 14.1467 25.0289 14.04C24.7289 13.9333 24.4856 13.7833 24.2989 13.59C24.1122 13.39 23.9556 13.1533 23.8289 12.88C23.4756 13.28 23.0356 13.6 22.5089 13.84C21.9889 14.08 21.4189 14.2 20.7989 14.2ZM21.4389 12.56C21.8122 12.56 22.1956 12.4667 22.5889 12.28C22.9889 12.0933 23.3256 11.8333 23.5989 11.5V9.18C22.8522 9.21333 22.2089 9.30333 21.6689 9.45C21.1356 9.59 20.7222 9.80333 20.4289 10.09C20.1422 10.3767 19.9989 10.7433 19.9989 11.19C19.9989 11.67 20.1256 12.02 20.3789 12.24C20.6322 12.4533 20.9856 12.56 21.4389 12.56ZM28.315 14V4.12H30.405V14H28.315ZM28.315 2.2V-9.53674e-07H30.405V2.2H28.315ZM32.7877 14V4.12H34.5777L34.8277 5.99L34.1877 5.49C34.7277 4.93 35.291 4.53 35.8777 4.29C36.4643 4.05 37.0777 3.93 37.7177 3.93C39.0843 3.93 40.0777 4.35 40.6977 5.19C41.3177 6.02333 41.6277 7.13333 41.6277 8.52V14H39.5377V8.61C39.5377 7.61667 39.361 6.88667 39.0077 6.42C38.6543 5.95333 38.0577 5.72 37.2177 5.72C36.5977 5.72 36.051 5.86333 35.5777 6.15C35.111 6.43 34.771 6.85 34.5577 7.41L34.8777 6.26V14H32.7877ZM44.378 18.84L46.618 13.47L42.508 4.12H44.828L47.678 11.04L50.368 4.12H52.688L46.578 18.84H44.378Z" fill="#9266F4"/>
<path d="M58.8513 14V-9.53674e-07H64.0613C65.4079 -9.53674e-07 66.6013 0.276666 67.6413 0.83C68.6879 1.38333 69.5079 2.18333 70.1013 3.23C70.6946 4.27 70.9913 5.52667 70.9913 7C70.9913 8.47333 70.6946 9.73333 70.1013 10.78C69.5079 11.82 68.6879 12.6167 67.6413 13.17C66.6013 13.7233 65.4079 14 64.0613 14H58.8513ZM61.0313 12.04H64.0613C65.0613 12.04 65.8979 11.8333 66.5713 11.42C67.2446 11 67.7513 10.4133 68.0913 9.66C68.4379 8.9 68.6113 8.01333 68.6113 7C68.6113 5.98667 68.4379 5.10333 68.0913 4.35C67.7513 3.59 67.2446 3.00333 66.5713 2.59C65.8979 2.17 65.0613 1.96 64.0613 1.96H61.0313V12.04ZM77.5867 14.2C76.4067 14.2 75.4201 13.9633 74.6267 13.49C73.8334 13.01 73.2334 12.3767 72.8267 11.59C72.4267 10.7967 72.2267 9.93 72.2267 8.99C72.2267 8.07667 72.4134 7.23667 72.7867 6.47C73.1667 5.70333 73.7167 5.09 74.4367 4.63C75.1634 4.16333 76.0401 3.93 77.0667 3.93C77.9401 3.93 78.6967 4.10667 79.3367 4.46C79.9767 4.81333 80.4667 5.30667 80.8067 5.94C81.1534 6.57333 81.3267 7.31333 81.3267 8.16C81.3267 8.33333 81.3167 8.51333 81.2967 8.7C81.2834 8.88667 81.2567 9.08333 81.2167 9.29H74.3867C74.4734 10.07 74.6801 10.69 75.0067 11.15C75.3334 11.6033 75.7401 11.9267 76.2267 12.12C76.7134 12.3133 77.2401 12.41 77.8067 12.41C78.3134 12.41 78.8134 12.3533 79.3067 12.24C79.8001 12.12 80.2634 11.95 80.6967 11.73L80.8867 13.44C80.5067 13.62 80.0401 13.7933 79.4867 13.96C78.9334 14.12 78.3001 14.2 77.5867 14.2ZM74.5067 7.86H79.1867C79.1867 7.46667 79.1134 7.11 78.9667 6.79C78.8201 6.46333 78.5867 6.20333 78.2667 6.01C77.9534 5.81667 77.5467 5.72 77.0467 5.72C76.3134 5.72 75.7434 5.91333 75.3367 6.3C74.9367 6.68667 74.6601 7.20667 74.5067 7.86ZM85.742 14L81.962 4.12H84.152L86.772 11.55L89.382 4.12H91.572L87.802 14H85.742ZM95.6172 14.2C94.8372 14.2 94.1705 14.1133 93.6172 13.94C93.0639 13.7667 92.6072 13.5833 92.2472 13.39L92.4672 11.49C92.8072 11.7233 93.2372 11.95 93.7572 12.17C94.2839 12.3833 94.8772 12.49 95.5372 12.49C96.1105 12.49 96.5472 12.3967 96.8472 12.21C97.1539 12.0167 97.3072 11.7333 97.3072 11.36C97.3072 11.0533 97.2172 10.8067 97.0372 10.62C96.8572 10.4267 96.6205 10.2667 96.3272 10.14C96.0339 10.0133 95.7239 9.89667 95.3972 9.79C94.8839 9.62333 94.3972 9.43 93.9372 9.21C93.4839 8.99 93.1139 8.69667 92.8272 8.33C92.5472 7.95667 92.4072 7.46333 92.4072 6.85C92.4072 6.31667 92.5405 5.82667 92.8072 5.38C93.0739 4.93333 93.4772 4.58 94.0172 4.32C94.5639 4.05333 95.2572 3.92 96.0972 3.92C96.7372 3.92 97.2805 3.99 97.7272 4.13C98.1805 4.26333 98.5839 4.42333 98.9372 4.61L98.7172 6.46C98.3639 6.18667 97.9805 5.96 97.5672 5.78C97.1605 5.59333 96.6839 5.5 96.1372 5.5C95.6305 5.5 95.2272 5.6 94.9272 5.8C94.6272 5.99333 94.4772 6.29 94.4772 6.69C94.4772 7.11667 94.6539 7.42667 95.0072 7.62C95.3605 7.81333 95.9105 8.03667 96.6572 8.29C96.9972 8.40333 97.3305 8.54 97.6572 8.7C97.9839 8.85333 98.2805 9.04 98.5472 9.26C98.8205 9.48 99.0372 9.75333 99.1972 10.08C99.3572 10.4067 99.4372 10.7967 99.4372 11.25C99.4372 11.77 99.3105 12.2533 99.0572 12.7C98.8105 13.1467 98.4072 13.51 97.8472 13.79C97.2939 14.0633 96.5505 14.2 95.6172 14.2Z" fill="#01BAD5"/>
</svg>
