<svg width="17" height="15" viewBox="0 0 17 15" fill="none" xmlns="http://www.w3.org/2000/svg">
<path d="M0 7.72589C0 7.34619 0.282154 7.0324 0.648229 6.98274L0.75 6.97589L13.934 6.97649L9.17101 2.23296C8.87749 1.9407 8.87647 1.46582 9.16873 1.1723C9.43442 0.905462 9.85103 0.880358 10.1451 1.09758L10.2294 1.17002L16.2794 7.19402C16.3181 7.23254 16.3517 7.27424 16.3802 7.31827C16.3883 7.33152 16.3965 7.34508 16.4042 7.35891C16.4114 7.37076 16.4178 7.38308 16.4239 7.39552C16.4324 7.41363 16.4407 7.43234 16.4482 7.45143C16.4543 7.46615 16.4594 7.48047 16.464 7.4949C16.4696 7.51279 16.4749 7.53186 16.4796 7.55122C16.483 7.56473 16.4857 7.57774 16.4881 7.5908C16.4914 7.61023 16.4943 7.63034 16.4963 7.65069C16.498 7.66621 16.4991 7.68158 16.4997 7.69697C16.4998 7.7063 16.5 7.71607 16.5 7.72589L16.4996 7.75494C16.499 7.76966 16.498 7.78437 16.4966 7.79904L16.5 7.72589C16.5 7.77322 16.4956 7.81952 16.4872 7.86442C16.4853 7.87514 16.483 7.88615 16.4804 7.89711C16.4751 7.91969 16.4689 7.94143 16.4618 7.96275C16.4584 7.97334 16.4543 7.98465 16.45 7.99588C16.4412 8.01845 16.4317 8.03996 16.4212 8.06092C16.4163 8.07077 16.4109 8.08109 16.4052 8.0913C16.3958 8.10795 16.3861 8.12378 16.3759 8.13921C16.3687 8.15014 16.3607 8.1615 16.3524 8.17269L16.3459 8.18133C16.3257 8.20773 16.3038 8.23275 16.2803 8.25622L16.2794 8.25692L10.2294 14.2819C9.93593 14.5742 9.46106 14.5732 9.16877 14.2797C8.90306 14.0129 8.87972 13.5962 9.09818 13.303L9.17097 13.2191L13.932 8.47649L0.75 8.47589C0.335786 8.47589 0 8.1401 0 7.72589Z" fill="black"/>
</svg>
