<svg width="26" height="30" viewBox="0 0 26 30" fill="none" xmlns="http://www.w3.org/2000/svg">
<path d="M25 14.0054C25.0046 15.9705 24.5934 17.9091 23.8 19.6631C22.8592 21.765 21.413 23.5329 19.6232 24.7688C17.8335 26.0047 15.771 26.6598 13.6666 26.6607C11.9068 26.6659 10.1708 26.2067 8.59999 25.3208L1 28.1496L3.53333 19.6631C2.73991 17.9091 2.32874 15.9705 2.33333 14.0054C2.33415 11.6557 2.92081 9.35253 4.02762 7.35404C5.13443 5.35554 6.71766 3.7406 8.59999 2.69011C10.1708 1.80414 11.9068 1.34502 13.6666 1.35014H14.3333C17.1124 1.52135 19.7374 2.8312 21.7055 5.0289C23.6736 7.2266 24.8466 10.1577 25 13.261V14.0054Z" stroke="white" stroke-width="2" stroke-linecap="round" stroke-linejoin="round"/>
</svg>
