<svg width="26" height="29" viewBox="0 0 26 29" fill="none" xmlns="http://www.w3.org/2000/svg">
<path d="M15.8656 6.1222C16.9879 6.36623 18.0192 6.97794 18.8278 7.87903C19.6363 8.78012 20.1851 9.92961 20.4041 11.1804M15.8656 1C18.1972 1.28868 20.3714 2.45237 22.0313 4.29999C23.6912 6.1476 24.738 8.56934 25 11.1676M23.851 21.3864V25.228C23.8523 25.5846 23.7868 25.9376 23.6586 26.2644C23.5304 26.5912 23.3424 26.8845 23.1066 27.1256C22.8708 27.3667 22.5924 27.5503 22.2893 27.6645C21.9861 27.7788 21.6649 27.8212 21.3462 27.7891C17.8106 27.3609 14.4145 26.0144 11.4306 23.8578C8.65443 21.8917 6.30076 19.2685 4.53669 16.1745C2.59489 12.8338 1.38647 9.03032 1.00933 5.07215C0.980614 4.71803 1.01837 4.36114 1.1202 4.02418C1.22203 3.68722 1.3857 3.37758 1.60078 3.11498C1.81586 2.85238 2.07765 2.64257 2.36948 2.49891C2.6613 2.35525 2.97677 2.28088 3.29579 2.28055H6.74273C7.30034 2.27443 7.84091 2.4945 8.2637 2.89974C8.68649 3.30497 8.96264 3.86772 9.04069 4.4831C9.18617 5.71251 9.45598 6.91963 9.84497 8.08144C9.99956 8.53978 10.033 9.0379 9.94138 9.51678C9.84974 9.99566 9.63685 10.4352 9.32793 10.7834L7.86873 12.4097C9.50436 15.6156 11.8861 18.2701 14.7626 20.093L16.2218 18.4667C16.5342 18.1224 16.9286 17.8851 17.3583 17.783C17.788 17.6809 18.2349 17.7182 18.6461 17.8904C19.6886 18.324 20.7717 18.6247 21.8748 18.7868C22.4329 18.8746 22.9426 19.1879 23.307 19.6672C23.6714 20.1465 23.865 20.7583 23.851 21.3864Z" stroke="white" stroke-width="2" stroke-linecap="round" stroke-linejoin="round"/>
</svg>
